<?xml version="1.0" encoding="utf-8"?>
<!-- Generator: Adobe Illustrator 27.0.1, SVG Export Plug-In . SVG Version: 6.00 Build 0)  -->
<svg version="1.1" id="Layer_1" xmlns="http://www.w3.org/2000/svg" xmlns:xlink="http://www.w3.org/1999/xlink" x="0px" y="0px"
	 viewBox="0 0 16.2 21.2" style="enable-background:new 0 0 16.2 21.2;" xml:space="preserve">
<style type="text/css">
	.st0{fill:#D8C6E1;}
</style>
<g id="Group_1140" transform="translate(0)">
	<path id="Path_11763" class="st0" d="M6.2,13.3L6.2,13.3L6.2,13.3L6.2,13.3"/>
	<path id="Path_11764" class="st0" d="M6.2,13.4C6.2,13.4,6.2,13.4,6.2,13.4C6.2,13.4,6.2,13.4,6.2,13.4"/>
	<path id="Path_11765" class="st0" d="M6.1,13.3L6.1,13.3C6.1,13.3,6.1,13.3,6.1,13.3C6.1,13.3,6.1,13.3,6.1,13.3"/>
	<path id="Path_11766" class="st0" d="M14.8,5.7L15,5.4c0-0.1,0-0.1,0.1-0.2c-0.2-0.1-0.5-0.2-0.7-0.3L14,4.8l-0.1,0l0,0l-0.1,0
		c0.1,0-0.1-0.1-0.3-0.2l0.1,0c-0.6-0.3-1.3-0.5-1.9-0.8c-0.1,0-0.1-0.1-0.2-0.1L11,3.6c0.1,0-0.4-0.2-0.2-0.1
		C10.4,3.4,10,3.2,9.6,3.1C8.2,2.6,6.8,2,5.3,1.5l0,0C4.8,1.4,4.3,1.2,3.8,1C3.4,0.9,3,0.8,2.5,0.8C2,0.6,1.8,0.5,1.3,0.4
		c0.1,0.1-0.5-0.1-0.3,0c0.3,0.2,0.3,0.1,0.6,0.3v0c1.2,0.6,2.5,1.1,3.8,1.7C6.3,2.6,7.2,3,8.1,3.4c1,0.4,2,0.8,2.9,1
		c0.2,0.1,0.3,0.2,0.5,0.3c0.4,0.1,0.8,0.3,1.3,0.5l0.7,0.3l0.3,0.1l0.1,0l0,0c0,0,0.1,0,0.1,0.1c0,0-0.1,0.1-0.1,0.1c0,0,0,0,0,0.1
		l0,0l0,0L13.7,6c0,0,0,0.1,0,0.1c-0.1,0-1.2,2.5-1.4,2.6l-0.1,0.1c-0.5,0.9-1.1,1.7-1.6,2.5c-0.1,0.2-0.1,0.4-0.2,0.5
		c-0.1,0.1-0.1,0.2-0.2,0.3c-0.4,0.3-0.4,0.6-0.3,0.4c-0.2,0.3-0.4,0.7-0.5,1L9.3,14c0,0.1-0.1,0.2-0.2,0.2
		c-0.1,0.2-0.2,0.4-0.3,0.5c-0.1,0.1-0.4,0.8-0.4,0.9l0-0.1c-0.2,0.4-0.4,0.6-0.6,0.9c-0.1,0.2-0.3,0.4-0.4,0.7l-0.3,0.5
		C7,17.8,6.9,18,6.9,18.1l0-0.1c0,0.1,0,0,0,0.2c0-0.1,0-0.2,0-0.4v-0.1v-0.1v0l0-0.1c0-0.1,0-0.2,0-0.3c0-0.2,0-0.1-0.1-0.3l0,0
		c-0.1-0.2,0-0.3,0-0.5c0,0,0-0.1,0-0.2c0,0,0-0.2,0-0.2l0,0c0,0,0-0.1,0-0.1c0-0.1-0.3-0.8-0.3-0.9v0c0-0.1-0.1-0.2-0.1-0.1l0-0.1
		l0,0l0-0.1c0,0,0-0.1,0,0c0-0.1-0.1-0.2-0.1-0.2c0,0.2,0,0.5,0,0.7c0-0.1,0-0.3-0.1-0.4c0-0.2,0-0.4,0-0.6c0,0-0.1-0.1-0.1-0.2
		c0-0.1,0-0.1,0-0.2c0,0.1,0,0.2,0.1,0.3c0,0,0-0.2,0-0.3c0,0,0-0.2-0.1-0.3c0,0,0,0,0-0.1l0,0l0,0c0,0,0-0.1,0-0.1
		c0-0.1,0-0.1,0-0.1c0,0,0,0,0,0C6.1,13,6,12.9,6,12.8c0,0,0,0,0,0s0,0,0,0s0,0,0,0l0,0c0,0.3-0.3-0.3-0.3,0.1c0-0.2,0.1,0,0.1,0.2
		c0,0.1,0,0.2,0,0.2c0,0.1,0,0.1,0,0.1c0,0.1,0,0.2,0,0.2c0,0.1,0,0.1,0,0.2s0,0,0,0.1c0,0.1,0,0.3,0.1,0.4c0,0,0,0.2-0.1,0.1
		c0-0.2,0.1,0.1,0-0.1c0,0.1,0-0.2-0.1-0.2c0,0.1,0,0.2,0,0.3v0c0,0.1,0.1,0.3,0.1,0.4c0,0,0,0-0.1,0l0,0.1c0,0,0,0,0,0
		c0,0.1,0,0.1,0,0.2c0,0,0.2,0.7,0.2,0.7C6,16,6,16,6,16c-0.1-0.3-0.2-0.8-0.2-0.7c0,0.1,0.3,1.1,0.3,1.2c0,0.1,0,0.2,0.1,0.1
		c0,0.1-0.1,0-0.1,0.1c0,0,0,0,0,0l0,0.1c0.1,0.2,0.1,0.5,0.1,0.7c-0.1-0.1-0.1-0.2-0.1-0.2l0,0c0,0,0-0.1-0.1-0.1
		c0,0.1,0,0.3,0.1,0.4c0,0,0,0.1,0,0.1c0,0,0,0,0,0c0,0,0,0,0,0c0,0,0,0,0,0c0,0,0,0,0,0c0,0,0,0,0,0l0,0.1c0,0.1,0,0.2,0.1,0.3
		c0,0.2,0.1,0.4,0.1,0.5c0,0.1,0,0,0,0.1c0,0.3,0,0.6,0.1,1c0,0,0,0,0-0.2l0,0.3c0,0,0,0.1,0,0.3s0,0.4,0,0.3c0,0.1,0,0.2,0,0.2
		c0-0.1,0.1-0.1,0.1-0.2c0-0.1,0.1-0.2,0.1-0.3l0.1-0.1l0,0l0,0c0.1,0,0.1,0,0.2,0l-0.3,0.6c0.1-0.2,0.3-0.4,0.4-0.6
		c0.2-0.1,0.4-0.1,0.6-0.2c0.2-0.1,0.4-0.2,0.6-0.3c0.2-0.1,0.4-0.2,0.6-0.4c0,0,0.1,0,0.1,0c0.2-0.1,0.4-0.2,0.5-0.3h0
		c0.1-0.1,0.2,0,0.3-0.1c0,0,0,0,0,0c0,0.1,0.5-0.4,0.6-0.4l0,0c0.2,0,0.4-0.1,0.6-0.1c0,0,0.1-0.1,0.1-0.1c0,0,0,0,0.1-0.1
		c0.2,0.1,0.2,0,0.1,0c0.1,0,0.1-0.1,0.2-0.1c0,0,0.1,0,0.1-0.1s0,0,0.1,0c0.1-0.1,0.1,0,0.1,0c0,0,0.1-0.2,0.2-0.2l0,0
		c0.1,0,0.2,0,0.3,0c0.2-0.1,0.5-0.2,0.7-0.3c0,0,0,0-0.1,0c0.1-0.1,0.3-0.1,0.4-0.1c0,0,0.1,0,0.1,0c0,0,0,0,0,0l0,0
		c0-0.1,0.1,0,0.1,0c0,0,0,0,0,0c0,0,0,0,0.1,0l0,0c0,0,0,0,0,0c0,0,0.1-0.2,0.1-0.2h0c0,0,0,0,0-0.1l0,0l0,0l0,0c0,0,0,0,0,0
		c0,0,0,0,0,0c-0.1,0-0.1,0-0.2,0c0,0,0.1,0,0.1,0c0,0,0.1,0,0.2,0c0,0,0-0.1,0,0c0,0,0,0,0.1,0c0,0,0,0-0.1,0c0,0,0.1,0,0.1,0
		c0,0,0,0,0.1,0c0,0,0,0,0,0v0v0c0,0,0,0,0,0c0,0,0,0,0,0c0,0,0,0,0,0c0,0,0,0,0,0c0-0.1,0-0.1,0-0.1s0,0,0,0c0,0,0,0,0,0
		c0,0,0,0,0,0v0c-0.1,0,0-0.3-0.1-0.2c0.1,0,0,0.1,0,0.1c0,0,0,0-0.1,0c0,0,0,0,0,0c0,0,0,0-0.1,0c0,0,0,0-0.1,0s0,0,0,0
		c0,0-0.1,0-0.1,0c0,0-0.1-0.1-0.1-0.1c0,0,0,0.1,0.1,0c0,0,0,0,0-0.1c0,0-0.1,0-0.1,0l0,0c0,0-0.1,0-0.1,0c0,0,0,0,0,0l0,0
		c0,0,0,0,0,0c0,0,0,0,0,0c0,0-0.1,0.2-0.1,0.1c0,0,0,0,0,0c0,0,0.1-0.1,0.1-0.1c0,0-0.2,0.2-0.2,0.2c0,0,0,0,0,0c0,0,0,0,0-0.1
		c0,0,0,0,0,0l0,0c0,0.1-0.1,0-0.1,0.1c0,0,0-0.1,0-0.1l0,0c0,0,0,0,0,0c0,0-0.1,0-0.1,0c0,0,0,0,0,0v0c0,0,0,0,0,0c0,0,0,0,0,0
		c0-0.1-0.1,0.1-0.1,0.1c0,0,0,0,0,0c-0.1,0-0.1,0-0.2,0c0,0,0,0.1,0,0.1l0,0c0-0.1-0.1,0-0.1-0.1c0,0,0,0-0.1,0c0,0,0,0,0,0.1
		c0,0-0.1,0-0.1,0c0,0,0,0,0-0.1c0,0.1-0.1,0-0.1,0c0,0-0.1,0-0.1,0.1c0,0-0.1,0-0.1,0l0,0c0.1,0,0.2-0.1,0.3-0.1
		c-0.3,0-0.6,0-0.7,0.3c-0.1-0.1-0.3-0.1-0.3-0.1c0,0-0.1,0.1-0.1,0.1c-0.3,0.2-0.6,0.4-0.9,0.5c-0.2,0.1-0.7,0.3-0.9,0.3l-0.1,0
		l0.1,0c-0.1,0.1-0.2,0.2-0.3,0.3c0,0,0.1,0,0.1,0l-0.1,0C9.2,17.9,9.1,18,9,18c0,0,0,0-0.1,0l0,0c-0.1,0-0.3,0.1-0.4,0.2
		c0,0,0,0,0,0l-0.1,0.1c0,0-0.1,0-0.1,0c-0.1,0.1-0.2,0.1-0.2,0.2c-0.1,0.1-0.2,0.1-0.4,0.2l0,0l0.4-0.6c0.3-0.5,0.5-1,0.6-1.5
		c0.2,0,0.8-0.9,0.8-1c0.1-0.2,0.2-0.4,0.3-0.6c0.7-1.4,1.4-2.8,2.3-4.1c0.5-0.8,1.7-2.9,2.2-3.7l0.2-0.3l-0.2,0.4l0.3-0.8l0-0.1
		l0.1-0.2l0.2-0.3l0.3-0.6C15.1,5.4,15,5.4,14.8,5.7 M5.9,13C5.9,13,5.9,13,5.9,13C5.9,13,5.9,13,5.9,13 M6.1,13.3L6.1,13.3
		c0-0.1,0-0.1,0-0.2c0,0,0,0,0,0c0,0,0-0.1,0-0.1l0,0v0c0,0,0,0,0-0.1c0,0,0,0,0,0c0,0,0,0.1,0,0.1C6,12.8,6,13,6.1,13.1
		C6.1,13.2,6.1,13.3,6.1,13.3L6.1,13.3l0,0.1C6.1,13.4,6.1,13.3,6.1,13.3 M14,16.4C14,16.4,14,16.4,14,16.4C14,16.4,14,16.4,14,16.4
		 M14,16.5L14,16.5C14,16.5,14.1,16.5,14,16.5C14.1,16.5,14.1,16.5,14,16.5C14.1,16.5,14.1,16.5,14,16.5L14,16.5L14,16.5
		C14.1,16.5,14.1,16.5,14,16.5C14.1,16.5,14.1,16.5,14,16.5C14.1,16.5,14.1,16.5,14,16.5C14.1,16.5,14.1,16.5,14,16.5
		C14,16.6,14,16.6,14,16.5C14,16.6,14,16.6,14,16.5L14,16.5C14,16.6,14,16.5,14,16.5 M7.5,18.8C7.5,18.8,7.5,18.8,7.5,18.8
		c0,0,0-0.1,0-0.2c0.1-0.3,0.2-0.2,0.2-0.2l0.1-0.2C7.8,18.4,7.6,18.6,7.5,18.8"/>
	<path id="Path_11767" class="st0" d="M14.1,16.6L14.1,16.6L14.1,16.6L14.1,16.6"/>
	<path id="Path_11768" class="st0" d="M14.1,16.7C14.1,16.7,14.1,16.6,14.1,16.7C14,16.7,14,16.7,14.1,16.7"/>
	<path id="Path_11769" class="st0" d="M14,16.6L14,16.6L14,16.6C14,16.5,14,16.6,14,16.6"/>
</g>
</svg>
